<?xml version="1.0" encoding="UTF-8" standalone="no"?>
<svg
   xmlns:dc="http://purl.org/dc/elements/1.1/"
   xmlns:cc="http://creativecommons.org/ns#"
   xmlns:rdf="http://www.w3.org/1999/02/22-rdf-syntax-ns#"
   xmlns:svg="http://www.w3.org/2000/svg"
   xmlns="http://www.w3.org/2000/svg"
   version="1.1"
   id="svg4845"
   viewBox="0 0 866.51569 163.99414"
   height="163.99414"
   width="866.51569">
  <defs
     id="defs4847" />
  <metadata
     id="metadata4850">
    <rdf:RDF>
      <cc:Work
         rdf:about="">
        <dc:format>image/svg+xml</dc:format>
        <dc:type
           rdf:resource="http://purl.org/dc/dcmitype/StillImage" />
        <dc:title></dc:title>
      </cc:Work>
    </rdf:RDF>
  </metadata>
  <g
     transform="translate(73.25783,-378.93656)"
     id="layer1">
    <path
       id="path114"
       d="m 233.68748,383.93656 0,153.99414 77,-76.99414 -77,-77 z M 66.666,444.19046 c -0.0874,0 -0.46743,0.12891 -0.5918,0.12891 l -3.54883,0.71875 c -0.50757,0.12438 -0.80469,0.12452 -0.80469,0.75977 l 0,28.38672 c 0,0.46387 0.0842,0.59179 0.5918,0.59179 l 4.18164,0 c 0.5076,0 0.5918,-0.12792 0.5918,-0.59179 l 0,-14.78321 c 0.55126,-0.5075 1.8184,-1.77734 3.58984,-1.77734 2.15464,0 2.36719,1.94545 2.36719,3.54883 l 0,13.01172 c 0,0.46387 0.0823,0.59179 0.58984,0.59179 l 4.18164,0 c 0.50762,0 0.5918,-0.12792 0.5918,-0.59179 l 0,-14.32032 c 0,-3.67737 -1.01094,-6.67187 -5.48828,-6.67187 -3.00171,0 -4.69253,1.47653 -5.83203,2.4043 l 0,-10.51563 c 0,-0.71938 -0.0838,-0.89062 -0.41992,-0.89063 z m 68.11132,0 c -0.0874,0 -0.46797,0.12891 -0.5957,0.12891 l -3.54687,0.71875 c -0.50757,0.12438 -0.80274,0.12452 -0.80274,0.75977 l 0,21.54297 c 0,3.88912 5.9e-4,8.15429 5.19727,8.15429 2.0269,0 4.26562,-0.59197 4.26562,-1.18359 0,-0.12775 -0.0436,-0.12614 -0.084,-0.33789 l -0.84375,-3.46289 c -0.0437,-0.17175 -0.17177,-0.25586 -0.33985,-0.25586 -0.25546,0 -0.80278,0.38281 -1.64648,0.38281 -1.1832,0 -1.18359,-1.18248 -1.18359,-2.53711 l 0,-23.01953 c 0,-0.71938 -0.0838,-0.89062 -0.41993,-0.89063 z m -202.14648,1.65235 c -0.71934,0 -0.88867,0.12514 -0.88867,0.88476 l 0,27.16211 c 0,0.759 0.16933,0.88477 0.88867,0.88477 l 3.92578,0 c 0.71934,0 0.89063,-0.12514 0.89063,-0.88477 l 0,-11.78711 8.02343,0 0,11.78711 c 0,0.759 0.16738,0.88477 0.88672,0.88477 l 3.92969,0 c 0.71597,0 0.88867,-0.12514 0.88867,-0.88477 l 0,-27.16211 c 0,-0.759 -0.1727,-0.88476 -0.88867,-0.88476 l -3.92969,0 c -0.71934,0 -0.88672,0.12514 -0.88672,0.88476 l 0,10.8125 -8.02343,0 0,-10.8125 c 0,-0.759 -0.17129,-0.88476 -0.89063,-0.88476 l -3.92578,0 z m 78.04492,7.34765 c -5.66055,0 -9.25195,4.64533 -9.25195,11.36133 0,7.77488 3.88974,10.94532 9.46289,10.94532 3.33784,0 7.5625,-1.3984 7.5625,-2.49415 0,-0.16812 -0.043,-0.34109 -0.12695,-0.46484 l -1.05469,-2.5332 c -0.084,-0.17138 -0.25308,-0.33985 -0.46485,-0.33985 -0.5916,0 -2.32319,1.39454 -5.36523,1.39454 -3.96978,0 -4.64844,-2.91488 -4.64844,-5.28125 l 11.36524,0 c 0.80336,0 0.9707,-0.25197 0.9707,-1.0586 0,-5.10937 -1.26598,-11.52929 -8.44922,-11.5293 z m 40.96094,0 c -6.25214,0 -9.8418,4.4333 -9.8418,11.57618 0,7.13625 3.5066,10.72851 9.37891,10.72851 2.53446,0 5.95703,-1.22511 5.95703,-2.24023 0,-0.12438 -0.0852,-0.29688 -0.12891,-0.42188 l -1.09961,-2.78906 c -0.084,-0.128 -0.16718,-0.21094 -0.29492,-0.21094 -0.75966,0 -1.60317,1.4336 -3.75781,1.4336 -3.2538,0 -4.35352,-2.14956 -4.35352,-6.79492 0,-4.8605 1.26667,-7.06055 4.14063,-7.06055 2.19834,0 3.59013,1.6914 4.01367,1.6914 0.12438,0 0.21288,-0.12898 0.29688,-0.20898 l 1.5625,-2.74609 c 0.0437,-0.12775 0.125,-0.25391 0.125,-0.37891 0,-1.31088 -3.71568,-2.57812 -5.99805,-2.57813 z m -85.30274,0.002 c -5.70425,0 -9.16601,4.34701 -9.16601,11.15039 0,6.8 3.46176,11.15234 9.16601,11.15234 5.70088,0 9.16602,-4.35234 9.16602,-11.15234 0,-6.80338 -3.50548,-11.15039 -9.16602,-11.15039 z m 20.85938,0 c -5.0286,0 -7.98633,4.21994 -7.98633,11.02344 0,6.3395 2.49517,10.30468 7.22461,10.30468 2.87398,0 4.47744,-1.18326 5.10938,-1.60351 0,0.2925 0.13085,1.30811 0.13085,2.78711 0,2.36637 -0.51214,3.58984 -3.46679,3.58984 -3.76136,0 -6.33619,-1.64648 -6.84375,-1.64648 -0.21178,0 -0.37889,0.12807 -0.46289,0.42382 l -0.80078,2.57813 c -0.13107,0.3765 -0.17188,0.548 -0.17188,0.84375 0,0.88737 5.44999,2.23828 8.74414,2.23828 5.8723,0 8.1543,-3.04331 8.1543,-7.64844 0,-2.363 -0.21094,-6.71207 -0.21094,-9.50195 l 0,-6.29492 c 0,-3.3345 1.18164,-4.85825 1.18164,-5.40625 0,-0.17138 -0.21084,-0.29516 -0.3789,-0.37891 l -3.29688,-1.22461 c -0.12437,-0.0438 -0.2975,-0.084 -0.42187,-0.084 -0.5916,0 -1.35415,1.6045 -1.47852,1.98437 -0.80336,-0.67562 -2.02704,-1.98437 -5.02539,-1.98437 z m 43.80273,0 c -4.56473,0 -7.48047,3.03939 -7.48046,6.88476 -10e-6,2.45038 1.2269,3.92632 2.49414,4.77344 2.78657,1.8555 6.92773,1.85431 6.92773,4.30469 0,1.52275 -1.18315,2.11133 -2.57813,2.11133 -2.61851,0 -5.87099,-1.85547 -6.03906,-1.85547 -0.16807,0 -0.25247,0.16898 -0.33984,0.38086 l -0.92774,2.40625 c -0.0437,0.17137 -0.21289,0.42303 -0.21289,0.55078 0,1.1395 4.8173,2.74609 7.94336,2.74609 4.47735,0 7.22461,-2.91361 7.22461,-6.80273 0,-2.447 -1.18495,-4.0531 -2.83203,-5.15235 -3.0017,-1.98312 -6.79883,-1.8167 -6.79883,-4.0957 0,-1.43862 1.18039,-2.0332 2.78711,-2.0332 2.70254,0 4.77267,1.10351 4.90039,1.10351 0.0403,0 0.25194,-0.16911 0.33594,-0.38086 l 0.9707,-2.32617 c 0.084,-0.168 0.21289,-0.41912 0.21289,-0.54687 0,-0.97475 -4.01309,-2.06836 -6.58789,-2.06836 z m 61.93555,0 c -5.70087,0 -9.16602,4.34701 -9.16601,11.15039 -10e-6,6.8 3.46514,11.15234 9.16601,11.15234 5.70424,0 9.16602,-4.35234 9.16602,-11.15234 0,-6.80338 -3.50548,-11.15039 -9.16602,-11.15039 z m 22.54883,0 c -5.70424,0 -9.16602,4.34701 -9.16602,11.15039 0,6.8 3.46178,11.15234 9.16602,11.15234 5.70087,0 9.16601,-4.35234 9.16601,-11.15234 0,-6.80338 -3.50547,-11.15039 -9.16601,-11.15039 z m -105.10156,3.92773 c 2.9143,0 3.04492,2.99739 3.04492,4.72852 l -6.63477,0 c 0.12773,-1.18325 0.29571,-4.72852 3.58985,-4.72852 z m -44.04493,0.29492 c 2.9143,0 3.4668,3.00161 3.4668,6.92774 0,3.96975 -0.5088,6.92383 -3.4668,6.92383 -2.95801,0 -3.46289,-2.99433 -3.46289,-6.92383 0,-3.92613 0.54858,-6.92774 3.46289,-6.92774 z m 126.59766,0 c 2.9143,0 3.46484,3.00161 3.46484,6.92774 0,3.96975 -0.50684,6.92383 -3.46484,6.92383 -2.95465,0 -3.46289,-2.99433 -3.46289,-6.92383 0,-3.92613 0.54858,-6.92774 3.46289,-6.92774 z m 22.54883,0 c 2.9143,0 3.46094,3.00161 3.46094,6.92774 0,3.96975 -0.50294,6.92383 -3.46094,6.92383 -2.958,0 -3.4668,-2.99433 -3.4668,-6.92383 0,-3.92613 0.55249,-6.92774 3.4668,-6.92774 z m -127.27539,0.20899 c 1.90254,0 2.78804,0.84603 3.33594,1.26953 l 0,9.9668 c -0.42017,0.38312 -1.43327,1.43945 -3.58789,1.43945 -2.53784,0 -3.38086,-2.40658 -3.38086,-6.25195 0,-4.05713 1.09835,-6.42383 3.63281,-6.42383 z"
       style="fill:#0a1a59;fill-opacity:1;fill-rule:nonzero;stroke:none" />
    <path
       id="path154"
       d="m 227.60545,383.93656 -76.99414,77 76.99414,76.99414 0,-153.99414 z m 243.91601,60.2539 c -0.084,0 -0.46015,0.12891 -0.58789,0.12891 l -3.54882,0.71875 c -0.50757,0.12438 -0.80079,0.12452 -0.80079,0.75977 l 0,28.38672 c 0,0.46387 0.0803,0.59179 0.58789,0.59179 l 4.18165,0 c 0.50758,0 0.5957,-0.12792 0.5957,-0.59179 l 0,-14.78321 c 0.5479,-0.5075 1.81168,-1.77734 3.58984,-1.77734 2.15464,0 2.36719,1.94545 2.36719,3.54883 l 0,13.01172 c 0,0.46387 0.0837,0.59179 0.58789,0.59179 l 4.18359,0 c 0.50762,0 0.58985,-0.12792 0.58985,-0.59179 l 0,-14.32032 c 0,-3.67737 -1.0129,-6.67187 -5.49024,-6.67187 -3.0017,0 -4.68862,1.47653 -5.82812,2.4043 l 0,-10.51563 c 0,-0.71938 -0.0883,-0.89062 -0.42774,-0.89063 z m 177.56641,0 c -1.93615,0 -3.50586,1.52393 -3.50586,3.4668 0,1.94288 1.56971,3.50586 3.50586,3.50586 1.90589,0 3.46484,-1.56298 3.46484,-3.50586 0,-1.94287 -1.55895,-3.46679 -3.46484,-3.4668 z m 14.14646,0.002 c -1.9428,0 -3.50583,1.52391 -3.50583,3.4668 0,1.93948 1.56293,3.50585 3.50583,3.50585 1.9025,0 3.4668,-1.56637 3.4668,-3.50585 0,-1.94289 -1.5643,-3.4668 -3.4668,-3.4668 z M 409.416,445.84285 c -0.71933,0 -0.76022,0.0849 -0.93165,0.63281 l -8.32226,27.20313 c -0.0403,0.168 -0.16406,0.50647 -0.16406,0.71484 0.037,0.29988 0.29583,0.38086 0.84375,0.38086 l 4.26757,0 c 0.62858,0 0.7167,-0.12514 0.88477,-0.88477 l 1.73047,-6.84765 7.26758,0 1.85547,6.84765 c 0.21176,0.759 0.29716,0.88477 0.7207,0.88477 l 4.73242,0 c 0.42018,0 0.84375,-0.0804 0.84375,-0.33594 0,-0.16812 -0.12812,-0.50778 -0.17187,-0.67578 l -8.2793,-27.24805 c -0.1647,-0.50762 -0.25283,-0.67187 -0.88477,-0.67187 l -4.39257,0 z m 209.64843,0 c -0.71933,0 -0.89062,0.12514 -0.89062,0.88476 l 0,27.16211 c 0,0.759 0.17129,0.88477 0.89062,0.88477 l 3.08008,0 c 0.71934,0 0.89063,-0.12514 0.89063,-0.88477 l 0,-15.20703 c 0,-1.94625 -0.125,-4.09665 -0.125,-4.64453 l 0.0801,0 c 0.42018,1.89575 1.13761,3.37374 2.40821,5.74024 l 7.73047,14.4082 c 0.25546,0.50825 0.37966,0.58789 0.97461,0.58789 l 2.78711,0 c 0.75967,0 0.88281,-0.12514 0.88281,-0.88477 l 0,-27.16211 c 0,-0.759 -0.16685,-0.88476 -0.88281,-0.88476 l -3.08594,0 c -0.71934,0 -0.88672,0.12514 -0.88672,0.88476 l 0,13.39063 c 0,1.18312 0.12695,4.14094 0.12695,5.49219 l -0.084,0 c -0.50756,-1.73438 -1.31039,-3.88496 -2.49024,-6.12696 l -6.97461,-13.09179 c -0.24875,-0.46413 -0.33735,-0.54883 -0.97265,-0.54883 l -3.45899,0 z m -207.87304,4.22265 0.084,0 c 0.21178,1.77139 0.54791,4.26499 0.92774,5.91211 l 1.73046,7.26758 -5.57617,0 1.85938,-7.26758 c 0.42352,-1.69075 0.80317,-4.14072 0.97461,-5.91211 z m 86.64257,3.125 c -5.66055,0 -9.24804,4.64533 -9.24804,11.36133 0,7.77488 3.88247,10.94532 9.45898,10.94532 3.33784,0 7.56055,-1.3984 7.56055,-2.49415 0,-0.16812 -0.041,-0.34109 -0.125,-0.46484 l -1.0586,-2.5332 c -0.0807,-0.17138 -0.24916,-0.33985 -0.46093,-0.33985 -0.59496,0 -2.32656,1.39454 -5.36524,1.39454 -3.97313,0 -4.64843,-2.91488 -4.64843,-5.28125 l 11.36523,0 c 0.80336,0 0.9707,-0.25197 0.9707,-1.0586 0,-5.10937 -1.26598,-11.52929 -8.44922,-11.5293 z m 68.99805,0 c -5.66054,0 -9.25,4.64533 -9.25,11.36133 0,7.77488 3.88975,10.94532 9.46289,10.94532 3.33785,0 7.5625,-1.3984 7.5625,-2.49415 0,-0.16812 -0.0444,-0.34109 -0.125,-0.46484 l -1.05859,-2.5332 c -0.084,-0.17138 -0.25167,-0.33985 -0.4668,-0.33985 -0.5916,0 -2.31929,1.39454 -5.36133,1.39454 -3.97313,0 -4.64453,-2.91488 -4.64453,-5.28125 l 11.36133,0 c 0.80336,0 0.9707,-0.25197 0.9707,-1.0586 0,-5.10937 -1.26792,-11.52929 -8.45117,-11.5293 z m 147.41992,0 c -5.6605,0 -9.2519,4.64533 -9.252,11.36133 2e-4,7.77488 3.8884,10.94532 9.4649,10.94532 3.3345,0 7.5586,-1.3984 7.5586,-2.49415 0,-0.16812 -0.043,-0.34109 -0.127,-0.46484 l -1.0527,-2.5332 c -0.084,-0.17138 -0.255,-0.33985 -0.4668,-0.33985 -0.5916,0 -2.3226,1.39454 -5.3613,1.39454 -3.9732,0 -4.6524,-2.91488 -4.6524,-5.28125 l 11.3692,0 c 0.8,0 0.9668,-0.25197 0.9668,-1.0586 0,-5.10937 -1.2674,-11.52929 -8.4473,-11.5293 z m 43.5098,0 c -5.6639,0 -9.2539,4.64533 -9.2539,11.36133 0,7.77488 3.8858,10.94532 9.4589,10.94532 3.3412,0 7.5665,-1.3984 7.5665,-2.49415 0,-0.16812 -0.045,-0.34109 -0.129,-0.46484 l -1.0546,-2.5332 c -0.087,-0.17138 -0.2517,-0.33985 -0.4668,-0.33985 -0.5883,0 -2.3193,1.39454 -5.3614,1.39454 -3.9731,0 -4.6504,-2.91488 -4.6504,-5.28125 l 11.3653,0 c 0.8,0 0.9746,-0.25197 0.9746,-1.0586 0,-5.10937 -1.2727,-11.52929 -8.4492,-11.5293 z m -406.39847,0.002 c -3.25716,0 -7.43945,1.01287 -7.43945,1.98437 0,0.168 0.0449,0.33644 0.1289,0.50782 l 0.84375,2.57812 c 0.0437,0.16463 0.21207,0.41992 0.42383,0.41992 0.5479,0 2.86993,-1.27148 5.23633,-1.27148 2.6622,0 2.99805,1.22823 2.99805,3.13086 l 0,1.30664 c -3.33448,0 -11.02149,-9.6e-4 -11.02149,7.13867 0,3.96975 2.44628,6.50781 6.33203,6.50781 3.16977,0 4.64848,-1.69011 5.49219,-2.53711 0.21176,1.0555 0.84869,2.53711 1.22852,2.53711 0.16807,0 0.3788,-0.12617 0.54687,-0.16992 l 3.21094,-1.3125 c 0.21512,-0.0807 0.37891,-0.207 0.37891,-0.375 0,-0.84712 -1.09961,-1.39664 -1.09961,-5.49414 l 0,-8.1543 c 0,-4.39337 -1.98242,-6.79687 -7.25977,-6.79687 z m 17.05859,0 c -0.16805,0 -0.37874,0.0413 -0.63085,0.125 l -3.21094,1.05273 c -0.29916,0.0874 -0.4668,0.25505 -0.4668,0.4668 0,0.9715 0.80274,0.63555 0.80274,6.5918 l 0,12.75586 c 0,0.46387 0.0842,0.59179 0.59179,0.59179 l 4.18555,0 c 0.50424,0 0.58789,-0.12792 0.58789,-0.59179 l 0,-14.82618 c 0.54791,-0.5075 1.942,-1.73437 3.7168,-1.73437 2.15127,0 2.36328,1.94545 2.36328,3.54883 l 0,13.01172 c 0,0.46387 0.0848,0.59179 0.5957,0.59179 l 4.18164,0 c 0.5076,0 0.5918,-0.12792 0.5918,-0.59179 l 0,-14.82813 c 0,-5.10925 -3.17144,-6.16406 -5.49414,-6.16406 -3.33784,0 -5.23545,1.81494 -6.45899,2.91406 -0.46722,-1.98662 -0.80418,-2.91406 -1.35547,-2.91406 z m 62.31641,0 c -0.16806,0 -0.37936,0.12601 -0.55078,0.16601 l -3.20898,1.31055 c -0.21177,0.084 -0.38086,0.21091 -0.38086,0.37891 0,0.9715 1.09961,1.73548 1.09961,6.38086 l 0,12.75586 c 0,0.46387 0.0842,0.59179 0.59179,0.59179 l 4.17774,0 c 0.51096,0 0.5957,-0.12792 0.5957,-0.59179 l 0,-14.10743 c 0.55128,-0.59162 1.89805,-2.03125 3.20898,-2.03125 0.97144,0 1.73228,0.46875 1.98438,0.46875 0.17144,0 0.29414,-0.25311 0.33789,-0.38086 l 1.3125,-3.54882 c 0.0403,-0.084 0.084,-0.25233 0.084,-0.42383 0,-0.54788 -1.22763,-0.96875 -2.45117,-0.96875 -2.87061,0 -4.43296,2.36261 -5.23633,3.33398 -0.21512,-1.43525 -1.06025,-3.33398 -1.56445,-3.33398 z m 15.91406,0 c -0.17143,0 -0.38266,0.0413 -0.63476,0.125 l -3.21094,1.05273 c -0.29916,0.0874 -0.46289,0.25505 -0.46289,0.4668 0,0.9715 0.79883,0.63555 0.79883,6.5918 l 0,12.75586 c 0,0.46387 0.0881,0.59179 0.5957,0.59179 l 4.18164,0 c 0.50424,0 0.58789,-0.12792 0.58789,-0.59179 l 0,-14.82618 c 0.55127,-0.5075 1.9473,-1.73437 3.71875,-1.73437 2.15463,0 2.36524,1.94545 2.36524,3.54883 l 0,13.01172 c 0,0.46387 0.0842,0.59179 0.59179,0.59179 l 4.18164,0 c 0.5076,0 0.5918,-0.12792 0.5918,-0.59179 l 0,-14.82813 c 0,-5.10925 -3.17088,-6.16406 -5.49023,-6.16406 -3.33448,0 -5.23936,1.81494 -6.46289,2.91406 -0.46723,-1.98662 -0.80703,-2.91406 -1.35157,-2.91406 z m 68.49805,0 c -0.16807,0 -0.37876,0.0413 -0.63086,0.125 l -3.21094,1.05273 c -0.2958,0.0874 -0.46289,0.25505 -0.46289,0.4668 0,0.9715 0.79883,0.63555 0.79883,6.5918 l 0,12.75586 c 0,0.46387 0.0876,0.59179 0.5918,0.59179 l 4.18554,0 c 0.50761,0 0.5918,-0.12792 0.5918,-0.59179 l 0,-14.82618 c 0.5479,-0.5075 1.94341,-1.73437 3.71485,-1.73437 1.60337,0 1.77343,1.94545 1.77343,3.54883 l 0,13.01172 c 0,0.46387 0.0842,0.59179 0.5918,0.59179 l 4.18164,0 c 0.50424,0 0.58789,-0.12792 0.58789,-0.59179 l 0,-14.82618 c 0.55126,-0.5075 1.94645,-1.73437 3.72461,-1.73437 1.60001,0 1.77149,1.94545 1.77148,3.54883 l 0,13.01172 c 0,0.46387 0.0837,0.59179 0.5879,0.59179 l 4.18164,0 c 0.51096,0 0.5957,-0.12792 0.5957,-0.59179 l 0,-14.32032 c 0,-3.67737 -0.93062,-6.67187 -4.90039,-6.67187 -3.4622,0 -5.27823,1.81494 -6.54883,2.91406 -0.5042,-1.77475 -2.49346,-2.91406 -4.30859,-2.91406 -3.33784,0 -5.19761,1.81494 -6.46485,2.91406 -0.46386,-1.98662 -0.8003,-2.91406 -1.35156,-2.91406 z m 68.875,0 c -0.16806,0 -0.38126,0.0413 -0.63672,0.125 l -3.20898,1.05273 c -0.2958,0.0874 -0.46485,0.25505 -0.46485,0.4668 0,0.9715 0.80469,0.63555 0.80469,6.5918 l 0,12.75586 c 0,0.46387 0.0842,0.59179 0.5918,0.59179 l 4.18164,0 c 0.5076,0 0.58984,-0.12792 0.58984,-0.59179 l 0,-14.82618 c 0.5479,-0.5075 1.94395,-1.73437 3.71875,-1.73437 2.15464,0 2.36524,1.94545 2.36524,3.54883 l 0,13.01172 c 0,0.46387 0.0856,0.59179 0.58984,0.59179 l 4.18359,0 c 0.50762,0 0.58789,-0.12792 0.5879,-0.59179 l 0,-14.82813 c 0,-5.10925 -3.16948,-6.16406 -5.49219,-6.16406 -3.33111,0 -5.23545,1.81494 -6.45899,2.91406 -0.46387,-1.98662 -0.8003,-2.91406 -1.35156,-2.91406 z m 92.29886,0 c -0.1681,0 -0.3814,0.0413 -0.6367,0.125 l -3.209,1.05273 c -0.2925,0.0874 -0.461,0.25505 -0.461,0.4668 0,0.9715 0.8008,0.63555 0.8008,6.5918 l 0,12.75586 c 0,0.46387 0.084,0.59179 0.5918,0.59179 l 4.1797,0 c 0.511,0 0.5957,-0.12792 0.5957,-0.59179 l 0,-14.82618 c 0.5479,-0.5075 1.9439,-1.73437 3.7187,-1.73437 1.6034,0 1.7676,1.94545 1.7676,3.54883 l 0,13.01172 c 0,0.46387 0.086,0.59179 0.5938,0.59179 l 4.1816,0 c 0.5076,0 0.5918,-0.12792 0.5918,-0.59179 l 0,-14.82618 c 0.5513,-0.5075 1.9434,-1.73437 3.7149,-1.73437 1.6067,0 1.7773,1.94545 1.7773,3.54883 l 0,13.01172 c 0,0.46387 0.089,0.59179 0.5898,0.59179 l 4.1836,0 c 0.5076,0 0.5879,-0.12792 0.5879,-0.59179 l 0,-14.32032 c 0,-3.67737 -0.9267,-6.67187 -4.8965,-6.67187 -3.4622,0 -5.2815,1.81494 -6.5488,2.91406 -0.5075,-1.77475 -2.4901,-2.91406 -4.3086,-2.91406 -3.3378,0 -5.1937,1.81494 -6.4609,2.91406 -0.4639,-1.98662 -0.8056,-2.91406 -1.3535,-2.91406 z m 57.9492,0 c -5.0253,0 -7.9863,4.21994 -7.9863,11.02344 0,6.3395 2.4971,10.30468 7.2265,10.30468 2.874,0 4.4775,-1.18326 5.1094,-1.60351 0,0.2925 0.1289,1.30811 0.1289,2.78711 0,2.36637 -0.5083,3.58984 -3.4629,3.58984 -3.7614,0 -6.3395,-1.64648 -6.8437,-1.64648 -0.2118,0 -0.3795,0.12807 -0.4668,0.42382 l -0.8008,2.57813 c -0.1277,0.3765 -0.168,0.548 -0.168,0.84375 0,0.88737 5.4467,2.23828 8.7442,2.23828 5.8723,0 8.1543,-3.04331 8.1543,-7.64844 0,-2.363 -0.2129,-6.71207 -0.2129,-9.50195 l 0,-6.29492 c 0,-3.3345 1.1796,-4.85825 1.1796,-5.40625 0,-0.17138 -0.2074,-0.29516 -0.3789,-0.37891 l -3.2949,-1.22461 c -0.1277,-0.0438 -0.2941,-0.084 -0.4219,-0.084 -0.5882,0 -1.3488,1.6045 -1.4765,1.98437 -0.8034,-0.67562 -2.031,-1.98437 -5.0293,-1.98437 z m 40.6758,0 c -0.1681,0 -0.3788,0.0413 -0.6309,0.125 l -3.2109,1.05273 c -0.2958,0.0874 -0.4668,0.25505 -0.4668,0.4668 0,0.9715 0.8027,0.63555 0.8027,6.5918 l 0,12.75586 c 0,0.46387 0.084,0.59179 0.5918,0.59179 l 4.1816,0 c 0.5043,0 0.5879,-0.12792 0.5879,-0.59179 l 0,-14.82618 c 0.5513,-0.5075 1.9465,-1.73437 3.7246,-1.73437 2.1513,0 2.3594,1.94545 2.3594,3.54883 l 0,13.01172 c 0,0.46387 0.088,0.59179 0.5957,0.59179 l 4.1817,0 c 0.5042,0 0.5918,-0.12792 0.5918,-0.59179 l 0,-14.82813 c 0,-5.10925 -3.1676,-6.16406 -5.4903,-6.16406 -3.3412,0 -5.2399,1.81494 -6.4668,2.91406 -0.4605,-1.98662 -0.8003,-2.91406 -1.3515,-2.91406 z m -448.00003,0.33203 c -0.084,0 -0.5475,0.0469 -0.67188,0.0469 l -3.50976,0.37696 c -0.6353,0.0874 -0.92774,0.12729 -0.92774,0.46679 0.0437,0.29588 0.16861,0.63696 0.20899,0.72071 l 6.71484,19.4707 c 0.17479,0.46413 0.217,0.54883 0.8086,0.54883 l 3.46093,0 c 0.5916,0 0.63466,-0.0849 0.80274,-0.54883 l 6.88476,-19.4707 c 0.0437,-0.084 0.17252,-0.42483 0.21289,-0.72071 0,-0.3395 -0.29634,-0.37929 -0.93164,-0.46679 l -2.87109,-0.37696 c -0.12773,0 -0.59178,-0.0469 -0.67578,-0.0469 -0.3395,0 -0.46406,0.38378 -0.5918,0.84766 l -2.87109,9.50585 c -0.50758,1.64713 -1.18203,4.60368 -1.4375,6.12305 l -0.084,0 c -0.25211,-1.56312 -0.88432,-4.43217 -1.35156,-6.12305 l -2.57422,-9.50585 c -0.12774,-0.4235 -0.25621,-0.84766 -0.5957,-0.84766 z m 330.37305,0.38281 c -0.5076,0 -0.5918,0.1313 -0.5918,0.5918 l 0,2.74609 c 0,0.46375 0.0842,0.5918 0.5918,0.5918 l 3.29488,0 0,17.10547 c 0,3.00175 -0.085,5.32422 -2.45113,5.32422 -1.30758,0 -2.41015,-0.5918 -2.69922,-0.5918 -0.12774,0 -0.30285,0.13211 -0.33985,0.25586 l -0.92968,3.16602 c -0.0404,0.12436 -0.084,0.29607 -0.084,0.42382 0,0.67563 2.5375,1.1836 4.64844,1.1836 6.16474,0 7.21874,-3.67708 7.21874,-9.67383 l 0,-20.53125 c 0,-0.4605 -0.082,-0.5918 -0.5898,-0.5918 l -8.06839,0 z m -14.14258,0.002 c -0.50759,0 -0.59571,0.12792 -0.59571,0.59179 l 0,2.7461 c 0,0.46325 0.0881,0.58789 0.59571,0.58789 l 3.25,0 0,16.34961 c 0,0.46387 0.0876,0.59179 0.59179,0.59179 l 4.1836,0 c 0.50424,0 0.58984,-0.12792 0.58984,-0.59179 l 0,-19.6836 c 0,-0.46387 -0.0856,-0.59179 -0.58984,-0.59179 l -8.02539,0 z M 497.541,457.12027 c 2.91093,0 3.03906,2.99739 3.03906,4.72852 l -6.63281,0 c 0.12773,-1.18325 0.29623,-4.72852 3.59375,-4.72852 z m 68.99609,0 c 2.91767,0 3.04492,2.99739 3.04492,4.72852 l -6.63086,0 c 0.12438,-1.18325 0.2918,-4.72852 3.58594,-4.72852 z m 147.41994,0 c 2.9143,0 3.0429,2.99739 3.0429,4.72852 l -6.6367,0 c 0.1278,-1.18325 0.2996,-4.72852 3.5938,-4.72852 z m 43.5078,0 c 2.9109,0 3.0391,2.99739 3.0391,4.72852 l -6.6329,0 c 0.1278,-1.18325 0.2997,-4.72852 3.5938,-4.72852 z m -22.1758,0.50391 c 1.8992,0 2.7861,0.84603 3.334,1.26953 l 0,9.9668 c -0.4202,0.38312 -1.4352,1.43945 -3.5898,1.43945 -2.5312,0 -3.377,-2.40658 -3.377,-6.25195 0,-4.05713 1.0983,-6.42383 3.6328,-6.42383 z m -381.73436,7.68945 0,4.64649 c -0.5042,0.50762 -1.60244,1.60546 -3.16211,1.60546 -1.61009,0 -2.79102,-1.22592 -2.79102,-2.87304 0,-3.71763 4.89766,-3.37891 5.95313,-3.37891 z"
       style="fill:#e21838;fill-opacity:1;fill-rule:nonzero;stroke:none" />
  </g>
</svg>
